REM DIRINDEX 1\2\3,1\2\4,1\2\5,1\2\6
REM DIRNAME cjc157,folder01,folder02,folder03,folder04,folder05
TITLE ""
FILE "149 149.mp3" MP3
  TRACK 01 AUDIO
    TITLE "0:"
    INDEX 01 00:00:00
  TRACK 02 AUDIO
    TITLE "3:cjc157_5526"
    INDEX 01 00:00:11
  TRACK 03 AUDIO
    TITLE "0:"
    INDEX 01 00:01:36
  TRACK 04 AUDIO
    TITLE "4:cjc157_5527"
    INDEX 01 00:02:08
  TRACK 05 AUDIO
    TITLE "0:"
    INDEX 01 00:03:27
  TRACK 06 AUDIO
    TITLE "5:cjc157_5528"
    INDEX 01 00:03:74
  TRACK 07 AUDIO
    TITLE "0:"
    INDEX 01 00:06:63
  TRACK 08 AUDIO
    TITLE "5:cjc157_5529"
    INDEX 01 00:07:35
  TRACK 09 AUDIO
    TITLE "0:"
    INDEX 01 00:10:59
  TRACK 10 AUDIO
    TITLE "5:cjc157_5530"
    INDEX 01 00:11:27
  TRACK 11 AUDIO
    TITLE "0:"
    INDEX 01 00:14:45
  TRACK 12 AUDIO
    TITLE "3:cjc157_5531"
    INDEX 01 00:15:15
  TRACK 13 AUDIO
    TITLE "0:"
    INDEX 01 00:16:34
  TRACK 14 AUDIO
    TITLE "4:cjc157_5532"
    INDEX 01 00:17:02
  TRACK 15 AUDIO
    TITLE "0:"
    INDEX 01 00:19:62
  TRACK 16 AUDIO
    TITLE "5:cjc157_5533"
    INDEX 01 00:20:36
  TRACK 17 AUDIO
    TITLE "0:"
    INDEX 01 00:22:34
  TRACK 18 AUDIO
    TITLE "5:cjc157_5534"
    INDEX 01 00:23:03
  TRACK 19 AUDIO
    TITLE "0:"
    INDEX 01 00:25:46
  TRACK 20 AUDIO
    TITLE "3:cjc157_5535"
    INDEX 01 00:26:18
  TRACK 21 AUDIO
    TITLE "0:"
    INDEX 01 00:27:53
  TRACK 22 AUDIO
    TITLE "4:cjc157_5536"
    INDEX 01 00:28:23
  TRACK 23 AUDIO
    TITLE "0:"
    INDEX 01 00:29:42
  TRACK 24 AUDIO
    TITLE "5:cjc157_5537"
    INDEX 01 00:30:14
  TRACK 25 AUDIO
    TITLE "0:"
    INDEX 01 00:32:66
  TRACK 26 AUDIO
    TITLE "3:cjc157_5538"
    INDEX 01 00:33:36
  TRACK 27 AUDIO
    TITLE "0:"
    INDEX 01 00:35:04
  TRACK 28 AUDIO
    TITLE "4:cjc157_5539"
    INDEX 01 00:35:51
  TRACK 29 AUDIO
    TITLE "0:"
    INDEX 01 00:36:72
  TRACK 30 AUDIO
    TITLE "5:cjc157_5540"
    INDEX 01 00:37:42
  TRACK 31 AUDIO
    TITLE "0:"
    INDEX 01 00:39:72
  TRACK 32 AUDIO
    TITLE "5:cjc157_5541"
    INDEX 01 00:40:42
  TRACK 33 AUDIO
    TITLE "0:"
    INDEX 01 00:42:53
  TRACK 34 AUDIO
    TITLE "3:cjc157_5542"
    INDEX 01 00:43:23
  TRACK 35 AUDIO
    TITLE "0:"
    INDEX 01 00:44:60
  TRACK 36 AUDIO
    TITLE "4:cjc157_5543"
    INDEX 01 00:45:28
  TRACK 37 AUDIO
    TITLE "0:"
    INDEX 01 00:46:47
  TRACK 38 AUDIO
    TITLE "5:cjc157_5544"
    INDEX 01 00:47:17
  TRACK 39 AUDIO
    TITLE "0:"
    INDEX 01 00:50:17
  TRACK 40 AUDIO
    TITLE "3:cjc157_5545"
    INDEX 01 00:50:70
  TRACK 41 AUDIO
    TITLE "0:"
    INDEX 01 00:52:08
  TRACK 42 AUDIO
    TITLE "4:cjc157_5546"
    INDEX 01 00:52:55
  TRACK 43 AUDIO
    TITLE "0:"
    INDEX 01 00:53:62
  TRACK 44 AUDIO
    TITLE "5:cjc157_5547"
    INDEX 01 00:54:46
  TRACK 45 AUDIO
    TITLE "0:"
    INDEX 01 00:56:69
  TRACK 46 AUDIO
    TITLE "3:cjc157_5548"
    INDEX 01 00:57:39
  TRACK 47 AUDIO
    TITLE "0:"
    INDEX 01 00:58:66
  TRACK 48 AUDIO
    TITLE "4:cjc157_5549"
    INDEX 01 00:59:34
  TRACK 49 AUDIO
    TITLE "0:"
    INDEX 01 01:00:47
  TRACK 50 AUDIO
    TITLE "5:cjc157_5550"
    INDEX 01 01:01:15
  TRACK 51 AUDIO
    TITLE "0:"
    INDEX 01 01:04:17
  TRACK 52 AUDIO
    TITLE "3:cjc157_5551"
    INDEX 01 01:04:60
  TRACK 53 AUDIO
    TITLE "0:"
    INDEX 01 01:06:57
  TRACK 54 AUDIO
    TITLE "4:cjc157_5552"
    INDEX 01 01:07:31
  TRACK 55 AUDIO
    TITLE "0:"
    INDEX 01 01:08:50
  TRACK 56 AUDIO
    TITLE "5:cjc157_5553"
    INDEX 01 01:09:22
  TRACK 57 AUDIO
    TITLE "0:"
    INDEX 01 01:12:34
  TRACK 58 AUDIO
    TITLE "3:cjc157_5554"
    INDEX 01 01:13:06
  TRACK 59 AUDIO
    TITLE "0:"
    INDEX 01 01:14:72
  TRACK 60 AUDIO
    TITLE "4:cjc157_5555"
    INDEX 01 01:15:42
  TRACK 61 AUDIO
    TITLE "0:"
    INDEX 01 01:16:60
  TRACK 62 AUDIO
    TITLE "5:cjc157_5556"
    INDEX 01 01:17:28
  TRACK 63 AUDIO
    TITLE "0:"
    INDEX 01 01:20:59
  TRACK 64 AUDIO
    TITLE "3:cjc157_5557"
    INDEX 01 01:21:29
  TRACK 65 AUDIO
    TITLE "0:"
    INDEX 01 01:22:64
  TRACK 66 AUDIO
    TITLE "4:cjc157_5558"
    INDEX 01 01:23:38
  TRACK 67 AUDIO
    TITLE "0:"
    INDEX 01 01:24:49
  TRACK 68 AUDIO
    TITLE "5:cjc157_5559"
    INDEX 01 01:25:19
  TRACK 69 AUDIO
    TITLE "0:"
    INDEX 01 01:28:31
  TRACK 70 AUDIO
    TITLE "5:cjc157_5560"
    INDEX 01 01:29:13
  TRACK 71 AUDIO
    TITLE "0:"
    INDEX 01 01:32:49
